<svg xmlns="http://www.w3.org/2000/svg" width="32" height="32" viewBox="0 0 32 32">
  <defs>
    <linearGradient id="cloudGradient" x1="0%" y1="0%" x2="100%" y2="100%">
      <stop offset="0%" style="stop-color:#60a5fa;stop-opacity:1" />
      <stop offset="100%" style="stop-color:#3b82f6;stop-opacity:1" />
    </linearGradient>
    <linearGradient id="sunGradient" x1="0%" y1="0%" x2="100%" y2="100%">
      <stop offset="0%" style="stop-color:#fbbf24;stop-opacity:1" />
      <stop offset="100%" style="stop-color:#f59e0b;stop-opacity:1" />
    </linearGradient>
  </defs>
  
  <!-- Background circle -->
  <circle cx="16" cy="16" r="15" fill="url(#cloudGradient)" stroke="#1e40af" stroke-width="1"/>
  
  <!-- Sun -->
  <circle cx="12" cy="10" r="4" fill="url(#sunGradient)"/>
  
  <!-- Cloud -->
  <path d="M8 18c-2.2 0-4 1.8-4 4s1.8 4 4 4h12c1.7 0 3-1.3 3-3s-1.3-3-3-3c0-2.2-1.8-4-4-4-1.5 0-2.8 0.8-3.5 2-0.5-0.6-1.2-1-2-1-1.1 0-2 0.9-2 2z" fill="white" opacity="0.9"/>
</svg>
